<?xml version="1.0" encoding="UTF-8" standalone="no"?><svg xmlns="http://www.w3.org/2000/svg" xmlns:xlink="http://www.w3.org/1999/xlink" clip-rule="evenodd" stroke-miterlimit="4.00" viewBox="0 0 1920 1080"><desc>SVG generated by Keynote</desc><defs></defs><g transform="matrix(1.00, 0.00, -0.00, -1.00, 0.0, 1080.0)"><path d="M 0.0 1080.0 L 1920.0 1080.0 L 1920.0 0.0 L 0.0 0.0 Z M 0.0 1080.0 " fill="#FEFFFF"></path><text xml:space="preserve" font-family="Helvetica-Light" font-size="72.0" fill="#000000" transform="matrix(1.00, 0.00, -0.00, -1.00, 802.0, 934.0)">F</text><text xml:space="preserve" font-family="Helvetica-Light" font-size="72.0" fill="#000000" transform="matrix(1.00, 0.00, -0.00, -1.00, 842.0, 934.0)">l</text><text xml:space="preserve" font-family="Helvetica-Light" font-size="72.0" fill="#000000" transform="matrix(1.00, 0.00, -0.00, -1.00, 858.0, 934.0)">e</text><text xml:space="preserve" font-family="Helvetica-Light" font-size="72.0" fill="#000000" transform="matrix(1.00, 0.00, -0.00, -1.00, 898.0, 934.0)">x</text><text xml:space="preserve" font-family="Helvetica-Light" font-size="72.0" fill="#000000" transform="matrix(1.00, 0.00, -0.00, -1.00, 934.0, 934.0)">-</text><text xml:space="preserve" font-family="Helvetica-Light" font-size="72.0" fill="#000000" transform="matrix(1.00, 0.00, -0.00, -1.00, 958.0, 934.0)">w</text><text xml:space="preserve" font-family="Helvetica-Light" font-size="72.0" fill="#000000" transform="matrix(1.00, 0.00, -0.00, -1.00, 1010.0, 934.0)">r</text><text xml:space="preserve" font-family="Helvetica-Light" font-size="72.0" fill="#000000" transform="matrix(1.00, 0.00, -0.00, -1.00, 1034.0, 934.0)">a</text><text xml:space="preserve" font-family="Helvetica-Light" font-size="72.0" fill="#000000" transform="matrix(1.00, 0.00, -0.00, -1.00, 1074.0, 934.0)">p</text><image xlink:href="23432588B4E155C6A9166815D3324327.png" width="740.00" height="315.00" transform="matrix(1.00, 0.00, -0.00, -1.00, 153.0, 783.0)"></image><image xlink:href="0180E84C60F0DEFDE07A4B6DE489EB7B.png" width="763.00" height="262.00" transform="matrix(1.00, 0.00, -0.00, -1.00, 134.0, 471.0)"></image><image xlink:href="F5D5355D7BC621DA7AE648306CB781EF.png" width="767.00" height="400.00" transform="matrix(1.00, 0.00, -0.00, -1.00, 1036.0, 826.0)"></image></g></svg>