<?xml version="1.0" encoding="UTF-8" standalone="no"?><svg xmlns="http://www.w3.org/2000/svg" xmlns:xlink="http://www.w3.org/1999/xlink" clip-rule="evenodd" stroke-miterlimit="4.00" viewBox="0 0 1920 1080"><desc>SVG generated by Keynote</desc><defs></defs><g transform="matrix(1.00, 0.00, -0.00, -1.00, 0.0, 1080.0)"><path d="M 0.0 1080.0 L 1920.0 1080.0 L 1920.0 0.0 L 0.0 0.0 Z M 0.0 1080.0 " fill="#FEFFFF"></path><text xml:space="preserve" font-family="Helvetica-Light" font-size="72.0" fill="#000000" transform="matrix(1.00, 0.00, -0.00, -1.00, 780.0, 934.0)">A</text><text xml:space="preserve" font-family="Helvetica-Light" font-size="72.0" fill="#000000" transform="matrix(1.00, 0.00, -0.00, -1.00, 828.0, 934.0)">l</text><text xml:space="preserve" font-family="Helvetica-Light" font-size="72.0" fill="#000000" transform="matrix(1.00, 0.00, -0.00, -1.00, 844.0, 934.0)">i</text><text xml:space="preserve" font-family="Helvetica-Light" font-size="72.0" fill="#000000" transform="matrix(1.00, 0.00, -0.00, -1.00, 860.0, 934.0)">g</text><text xml:space="preserve" font-family="Helvetica-Light" font-size="72.0" fill="#000000" transform="matrix(1.00, 0.00, -0.00, -1.00, 904.0, 934.0)">n</text><text xml:space="preserve" font-family="Helvetica-Light" font-size="72.0" fill="#000000" transform="matrix(1.00, 0.00, -0.00, -1.00, 944.0, 934.0)">-</text><text xml:space="preserve" font-family="Helvetica-Light" font-size="72.0" fill="#000000" transform="matrix(1.00, 0.00, -0.00, -1.00, 968.0, 934.0)">i</text><text xml:space="preserve" font-family="Helvetica-Light" font-size="72.0" fill="#000000" transform="matrix(1.00, 0.00, -0.00, -1.00, 984.0, 934.0)">t</text><text xml:space="preserve" font-family="Helvetica-Light" font-size="72.0" fill="#000000" transform="matrix(1.00, 0.00, -0.00, -1.00, 1004.0, 934.0)">e</text><text xml:space="preserve" font-family="Helvetica-Light" font-size="72.0" fill="#000000" transform="matrix(1.00, 0.00, -0.00, -1.00, 1044.0, 934.0)">m</text><text xml:space="preserve" font-family="Helvetica-Light" font-size="72.0" fill="#000000" transform="matrix(1.00, 0.00, -0.00, -1.00, 1104.0, 934.0)">s</text><image xlink:href="6DDB36122CD473088A4265CB940A4339.png" width="758.00" height="225.00" transform="matrix(1.00, 0.00, -0.00, -1.00, 142.0, 831.0)"></image><image xlink:href="27847C59889D209B7129027B9A476F03.png" width="775.00" height="347.00" transform="matrix(1.00, 0.00, -0.00, -1.00, 124.0, 614.0)"></image><image xlink:href="9A5210314C80F9C129EA8B6257EFDC65.png" width="789.00" height="348.00" transform="matrix(1.00, 0.00, -0.00, -1.00, 1071.0, 857.0)"></image><image xlink:href="EFE8AE64A2424810DBC9CB68E6C0BDBF.png" width="774.00" height="293.00" transform="matrix(1.00, 0.00, -0.00, -1.00, 1088.0, 510.0)"></image></g></svg>