<?xml version="1.0" encoding="UTF-8" standalone="no"?><svg xmlns="http://www.w3.org/2000/svg" xmlns:xlink="http://www.w3.org/1999/xlink" clip-rule="evenodd" stroke-miterlimit="4.00" viewBox="0 0 1920 1080"><desc>SVG generated by Keynote</desc><defs></defs><g transform="matrix(1.00, 0.00, -0.00, -1.00, 0.0, 1080.0)"><path d="M 0.0 1080.0 L 1920.0 1080.0 L 1920.0 0.0 L 0.0 0.0 Z M 0.0 1080.0 " fill="#FEFFFF"></path><image xlink:href="../../D22E41F2-7266-4873-A9CF-2FF93D6DF4BE/assets/D28986ACC683FEE335147FE2D03E1C5B.png" width="224.00" height="225.00" transform="matrix(1.17, 0.00, -0.00, -1.16, 1545.0, 913.0)"></image><text xml:space="preserve" font-family="Helvetica-Light" font-size="50.0" fill="#000000" transform="matrix(1.00, 0.00, -0.00, -1.00, 1591.0, 585.0)">1</text><text xml:space="preserve" font-family="Helvetica-Light" font-size="50.0" fill="#000000" transform="matrix(1.00, 0.00, -0.00, -1.00, 1618.8, 585.0)">0</text><path d="M 1661.0 622.6 L 1721.2 622.6 L 1721.2 583.3 L 1661.0 583.3 Z M 1661.0 622.6 " fill="#F5D327"></path><g><clipPath id="clip-30"><path d="M 1659.4 581.7 L 1722.8 581.7 L 1722.8 624.2 L 1659.4 624.2 Z M 1659.4 581.7 "></path></clipPath><g clip-path="url(#clip-30)"><text xml:space="preserve" font-family="Helvetica-Light" font-size="25.0" fill="#000000" transform="matrix(1.00, 0.00, -0.00, -1.00, 1666.0, 594.0)">-</text><text xml:space="preserve" font-family="Helvetica-Light" font-size="25.0" fill="#000000" transform="matrix(1.00, 0.00, -0.00, -1.00, 1674.3, 594.0)">m</text><text xml:space="preserve" font-family="Helvetica-Light" font-size="25.0" fill="#000000" transform="matrix(1.00, 0.00, -0.00, -1.00, 1695.2, 594.0)">s</text><text xml:space="preserve" font-family="Helvetica-Light" font-size="25.0" fill="#000000" transform="matrix(1.00, 0.00, -0.00, -1.00, 1707.7, 594.0)">-</text></g></g><image xlink:href="../../D22E41F2-7266-4873-A9CF-2FF93D6DF4BE/assets/7088F76B7875FB134D321B436498888F.png" width="283.00" height="189.00" transform="matrix(1.00, 0.00, -0.00, -1.00, 1192.0, 877.0)"></image><image xlink:href="../../D354807F-EFA9-4B86-9A7B-629B33E195CE/assets/3E2D5FF7A5C07868584F838ED8006CF1.jpeg" width="66.00" height="76.00" transform="matrix(1.00, 0.00, -0.00, -1.00, 1301.0, 543.0)"></image><text xml:space="preserve" font-family="Helvetica-Light" font-size="50.0" fill="#000000" transform="matrix(1.00, 0.00, -0.00, -1.00, 1274.0, 585.0)">E</text><text xml:space="preserve" font-family="Helvetica-Light" font-size="50.0" fill="#000000" transform="matrix(1.00, 0.00, -0.00, -1.00, 1304.5, 585.0)">d</text><text xml:space="preserve" font-family="Helvetica-Light" font-size="50.0" fill="#000000" transform="matrix(1.00, 0.00, -0.00, -1.00, 1335.1, 585.0)">g</text><text xml:space="preserve" font-family="Helvetica-Light" font-size="50.0" fill="#000000" transform="matrix(1.00, 0.00, -0.00, -1.00, 1365.7, 585.0)">e</text><image xlink:href="../../D22E41F2-7266-4873-A9CF-2FF93D6DF4BE/assets/4AA750523D9F6A643B1DA0EC0B4B152C.jpeg" width="204.00" height="204.00" transform="matrix(1.00, 0.00, -0.00, -1.00, 541.0, 879.0)"></image><text xml:space="preserve" font-family="Helvetica-Light" font-size="50.0" fill="#000000" transform="matrix(1.00, 0.00, -0.00, -1.00, 568.0, 580.0)">F</text><text xml:space="preserve" font-family="Helvetica-Light" font-size="50.0" fill="#000000" transform="matrix(1.00, 0.00, -0.00, -1.00, 595.8, 580.0)">i</text><text xml:space="preserve" font-family="Helvetica-Light" font-size="50.0" fill="#000000" transform="matrix(1.00, 0.00, -0.00, -1.00, 606.9, 580.0)">r</text><text xml:space="preserve" font-family="Helvetica-Light" font-size="50.0" fill="#000000" transform="matrix(1.00, 0.00, -0.00, -1.00, 622.6, 580.0)">e</text><text xml:space="preserve" font-family="Helvetica-Light" font-size="50.0" fill="#000000" transform="matrix(1.00, 0.00, -0.00, -1.00, 650.5, 580.0)">f</text><text xml:space="preserve" font-family="Helvetica-Light" font-size="50.0" fill="#000000" transform="matrix(1.00, 0.00, -0.00, -1.00, 664.4, 580.0)">o</text><text xml:space="preserve" font-family="Helvetica-Light" font-size="50.0" fill="#000000" transform="matrix(1.00, 0.00, -0.00, -1.00, 692.1, 580.0)">x</text><image xlink:href="../../D22E41F2-7266-4873-A9CF-2FF93D6DF4BE/assets/9489E07AB0D5226A1A6BC1601B6D1063.png" width="223.00" height="223.00" transform="matrix(1.00, 0.00, -0.00, -1.00, 226.0, 888.0)"></image><text xml:space="preserve" font-family="Helvetica-Light" font-size="50.0" fill="#000000" transform="matrix(1.00, 0.00, -0.00, -1.00, 248.0, 580.0)">C</text><text xml:space="preserve" font-family="Helvetica-Light" font-size="50.0" fill="#000000" transform="matrix(1.00, 0.00, -0.00, -1.00, 284.1, 580.0)">h</text><text xml:space="preserve" font-family="Helvetica-Light" font-size="50.0" fill="#000000" transform="matrix(1.00, 0.00, -0.00, -1.00, 311.9, 580.0)">r</text><text xml:space="preserve" font-family="Helvetica-Light" font-size="50.0" fill="#000000" transform="matrix(1.00, 0.00, -0.00, -1.00, 327.6, 580.0)">o</text><text xml:space="preserve" font-family="Helvetica-Light" font-size="50.0" fill="#000000" transform="matrix(1.00, 0.00, -0.00, -1.00, 355.4, 580.0)">m</text><text xml:space="preserve" font-family="Helvetica-Light" font-size="50.0" fill="#000000" transform="matrix(1.00, 0.00, -0.00, -1.00, 397.1, 580.0)">e</text><text xml:space="preserve" font-family="Helvetica-Light" font-size="50.0" fill="#000000" transform="matrix(1.00, 0.00, -0.00, -1.00, 887.0, 576.0)">O</text><text xml:space="preserve" font-family="Helvetica-Light" font-size="50.0" fill="#000000" transform="matrix(1.00, 0.00, -0.00, -1.00, 925.9, 576.0)">p</text><text xml:space="preserve" font-family="Helvetica-Light" font-size="50.0" fill="#000000" transform="matrix(1.00, 0.00, -0.00, -1.00, 956.5, 576.0)">e</text><text xml:space="preserve" font-family="Helvetica-Light" font-size="50.0" fill="#000000" transform="matrix(1.00, 0.00, -0.00, -1.00, 984.2, 576.0)">r</text><text xml:space="preserve" font-family="Helvetica-Light" font-size="50.0" fill="#000000" transform="matrix(1.00, 0.00, -0.00, -1.00, 1000.9, 576.0)">a</text><text xml:space="preserve" font-family="Helvetica-Light" font-size="50.0" fill="#000000" transform="matrix(1.00, 0.00, -0.00, -1.00, 1028.7, 576.0)"> </text><text xml:space="preserve" font-family="Helvetica-Light" font-size="50.0" fill="#000000" transform="matrix(1.00, 0.00, -0.00, -1.00, 894.0, 516.0)">S</text><text xml:space="preserve" font-family="Helvetica-Light" font-size="50.0" fill="#000000" transform="matrix(1.00, 0.00, -0.00, -1.00, 924.5, 516.0)">a</text><text xml:space="preserve" font-family="Helvetica-Light" font-size="50.0" fill="#000000" transform="matrix(1.00, 0.00, -0.00, -1.00, 952.4, 516.0)">f</text><text xml:space="preserve" font-family="Helvetica-Light" font-size="50.0" fill="#000000" transform="matrix(1.00, 0.00, -0.00, -1.00, 966.2, 516.0)">a</text><text xml:space="preserve" font-family="Helvetica-Light" font-size="50.0" fill="#000000" transform="matrix(1.00, 0.00, -0.00, -1.00, 994.0, 516.0)">r</text><text xml:space="preserve" font-family="Helvetica-Light" font-size="50.0" fill="#000000" transform="matrix(1.00, 0.00, -0.00, -1.00, 1010.7, 516.0)">i</text><text xml:space="preserve" font-family="Helvetica-Light" font-size="50.0" fill="#000000" transform="matrix(1.00, 0.00, -0.00, -1.00, 1021.8, 516.0)"> </text><text xml:space="preserve" font-family="Helvetica-Light" font-size="50.0" fill="#000000" transform="matrix(1.00, 0.00, -0.00, -1.00, 771.0, 456.0)">A</text><text xml:space="preserve" font-family="Helvetica-Light" font-size="50.0" fill="#000000" transform="matrix(1.00, 0.00, -0.00, -1.00, 804.4, 456.0)">n</text><text xml:space="preserve" font-family="Helvetica-Light" font-size="50.0" fill="#000000" transform="matrix(1.00, 0.00, -0.00, -1.00, 832.1, 456.0)">d</text><text xml:space="preserve" font-family="Helvetica-Light" font-size="50.0" fill="#000000" transform="matrix(1.00, 0.00, -0.00, -1.00, 862.7, 456.0)">r</text><text xml:space="preserve" font-family="Helvetica-Light" font-size="50.0" fill="#000000" transform="matrix(1.00, 0.00, -0.00, -1.00, 878.5, 456.0)">o</text><text xml:space="preserve" font-family="Helvetica-Light" font-size="50.0" fill="#000000" transform="matrix(1.00, 0.00, -0.00, -1.00, 906.2, 456.0)">i</text><text xml:space="preserve" font-family="Helvetica-Light" font-size="50.0" fill="#000000" transform="matrix(1.00, 0.00, -0.00, -1.00, 917.4, 456.0)">d</text><text xml:space="preserve" font-family="Helvetica-Light" font-size="50.0" fill="#000000" transform="matrix(1.00, 0.00, -0.00, -1.00, 947.9, 456.0)"> </text><text xml:space="preserve" font-family="Helvetica-Light" font-size="50.0" fill="#000000" transform="matrix(1.00, 0.00, -0.00, -1.00, 961.8, 456.0)">B</text><text xml:space="preserve" font-family="Helvetica-Light" font-size="50.0" fill="#000000" transform="matrix(1.00, 0.00, -0.00, -1.00, 995.1, 456.0)">r</text><text xml:space="preserve" font-family="Helvetica-Light" font-size="50.0" fill="#000000" transform="matrix(1.00, 0.00, -0.00, -1.00, 1010.9, 456.0)">o</text><text xml:space="preserve" font-family="Helvetica-Light" font-size="50.0" fill="#000000" transform="matrix(1.00, 0.00, -0.00, -1.00, 1038.7, 456.0)">w</text><text xml:space="preserve" font-family="Helvetica-Light" font-size="50.0" fill="#000000" transform="matrix(1.00, 0.00, -0.00, -1.00, 1074.8, 456.0)">s</text><text xml:space="preserve" font-family="Helvetica-Light" font-size="50.0" fill="#000000" transform="matrix(1.00, 0.00, -0.00, -1.00, 1099.8, 456.0)">e</text><text xml:space="preserve" font-family="Helvetica-Light" font-size="50.0" fill="#000000" transform="matrix(1.00, 0.00, -0.00, -1.00, 1127.6, 456.0)">r</text><text xml:space="preserve" font-family="Helvetica-Light" font-size="50.0" fill="#000000" transform="matrix(1.00, 0.00, -0.00, -1.00, 1144.2, 456.0)"> </text><text xml:space="preserve" font-family="Helvetica-Light" font-size="50.0" fill="#000000" transform="matrix(1.00, 0.00, -0.00, -1.00, 846.0, 396.0)">i</text><text xml:space="preserve" font-family="Helvetica-Light" font-size="50.0" fill="#000000" transform="matrix(1.00, 0.00, -0.00, -1.00, 857.1, 396.0)">O</text><text xml:space="preserve" font-family="Helvetica-Light" font-size="50.0" fill="#000000" transform="matrix(1.00, 0.00, -0.00, -1.00, 896.0, 396.0)">S</text><text xml:space="preserve" font-family="Helvetica-Light" font-size="50.0" fill="#000000" transform="matrix(1.00, 0.00, -0.00, -1.00, 926.5, 396.0)"> </text><text xml:space="preserve" font-family="Helvetica-Light" font-size="50.0" fill="#000000" transform="matrix(1.00, 0.00, -0.00, -1.00, 940.5, 396.0)">S</text><text xml:space="preserve" font-family="Helvetica-Light" font-size="50.0" fill="#000000" transform="matrix(1.00, 0.00, -0.00, -1.00, 971.0, 396.0)">a</text><text xml:space="preserve" font-family="Helvetica-Light" font-size="50.0" fill="#000000" transform="matrix(1.00, 0.00, -0.00, -1.00, 998.8, 396.0)">f</text><text xml:space="preserve" font-family="Helvetica-Light" font-size="50.0" fill="#000000" transform="matrix(1.00, 0.00, -0.00, -1.00, 1012.7, 396.0)">a</text><text xml:space="preserve" font-family="Helvetica-Light" font-size="50.0" fill="#000000" transform="matrix(1.00, 0.00, -0.00, -1.00, 1040.5, 396.0)">r</text><text xml:space="preserve" font-family="Helvetica-Light" font-size="50.0" fill="#000000" transform="matrix(1.00, 0.00, -0.00, -1.00, 1057.2, 396.0)">i</text><image xlink:href="../../D354807F-EFA9-4B86-9A7B-629B33E195CE/assets/3E2D5FF7A5C07868584F838ED8006CF1.jpeg" width="66.00" height="76.00" transform="matrix(1.00, 0.00, -0.00, -1.00, 304.0, 543.0)"></image><image xlink:href="../../D354807F-EFA9-4B86-9A7B-629B33E195CE/assets/3E2D5FF7A5C07868584F838ED8006CF1.jpeg" width="66.00" height="76.00" transform="matrix(1.00, 0.00, -0.00, -1.00, 610.0, 543.0)"></image><image xlink:href="../../D354807F-EFA9-4B86-9A7B-629B33E195CE/assets/3E2D5FF7A5C07868584F838ED8006CF1.jpeg" width="66.00" height="76.00" transform="matrix(1.00, 0.00, -0.00, -0.99, 916.0, 369.0)"></image><text xml:space="preserve" font-family="Helvetica-Light" font-size="50.0" fill="#51A7F9" transform="matrix(1.00, 0.00, -0.00, -1.00, 601.0, 142.0)">h</text><text xml:space="preserve" font-family="Helvetica-Light" font-size="50.0" fill="#51A7F9" transform="matrix(1.00, 0.00, -0.00, -1.00, 628.8, 142.0)">t</text><text xml:space="preserve" font-family="Helvetica-Light" font-size="50.0" fill="#51A7F9" transform="matrix(1.00, 0.00, -0.00, -1.00, 642.7, 142.0)">t</text><text xml:space="preserve" font-family="Helvetica-Light" font-size="50.0" fill="#51A7F9" transform="matrix(1.00, 0.00, -0.00, -1.00, 656.6, 142.0)">p</text><text xml:space="preserve" font-family="Helvetica-Light" font-size="50.0" fill="#51A7F9" transform="matrix(1.00, 0.00, -0.00, -1.00, 687.1, 142.0)">:</text><text xml:space="preserve" font-family="Helvetica-Light" font-size="50.0" fill="#51A7F9" transform="matrix(1.00, 0.00, -0.00, -1.00, 701.0, 142.0)">/</text><text xml:space="preserve" font-family="Helvetica-Light" font-size="50.0" fill="#51A7F9" transform="matrix(1.00, 0.00, -0.00, -1.00, 715.0, 142.0)">/</text><text xml:space="preserve" font-family="Helvetica-Light" font-size="50.0" fill="#51A7F9" transform="matrix(1.00, 0.00, -0.00, -1.00, 728.9, 142.0)">c</text><text xml:space="preserve" font-family="Helvetica-Light" font-size="50.0" fill="#51A7F9" transform="matrix(1.00, 0.00, -0.00, -1.00, 756.7, 142.0)">a</text><text xml:space="preserve" font-family="Helvetica-Light" font-size="50.0" fill="#51A7F9" transform="matrix(1.00, 0.00, -0.00, -1.00, 784.5, 142.0)">n</text><text xml:space="preserve" font-family="Helvetica-Light" font-size="50.0" fill="#51A7F9" transform="matrix(1.00, 0.00, -0.00, -1.00, 812.2, 142.0)">i</text><text xml:space="preserve" font-family="Helvetica-Light" font-size="50.0" fill="#51A7F9" transform="matrix(1.00, 0.00, -0.00, -1.00, 823.4, 142.0)">u</text><text xml:space="preserve" font-family="Helvetica-Light" font-size="50.0" fill="#51A7F9" transform="matrix(1.00, 0.00, -0.00, -1.00, 851.2, 142.0)">s</text><text xml:space="preserve" font-family="Helvetica-Light" font-size="50.0" fill="#51A7F9" transform="matrix(1.00, 0.00, -0.00, -1.00, 876.2, 142.0)">e</text><text xml:space="preserve" font-family="Helvetica-Light" font-size="50.0" fill="#51A7F9" transform="matrix(1.00, 0.00, -0.00, -1.00, 904.0, 142.0)">.</text><text xml:space="preserve" font-family="Helvetica-Light" font-size="50.0" fill="#51A7F9" transform="matrix(1.00, 0.00, -0.00, -1.00, 917.9, 142.0)">c</text><text xml:space="preserve" font-family="Helvetica-Light" font-size="50.0" fill="#51A7F9" transform="matrix(1.00, 0.00, -0.00, -1.00, 945.7, 142.0)">o</text><text xml:space="preserve" font-family="Helvetica-Light" font-size="50.0" fill="#51A7F9" transform="matrix(1.00, 0.00, -0.00, -1.00, 973.5, 142.0)">m</text><text xml:space="preserve" font-family="Helvetica-Light" font-size="50.0" fill="#51A7F9" transform="matrix(1.00, 0.00, -0.00, -1.00, 1015.1, 142.0)">/</text><text xml:space="preserve" font-family="Helvetica-Light" font-size="50.0" fill="#51A7F9" transform="matrix(1.00, 0.00, -0.00, -1.00, 1029.0, 142.0)">#</text><text xml:space="preserve" font-family="Helvetica-Light" font-size="50.0" fill="#51A7F9" transform="matrix(1.00, 0.00, -0.00, -1.00, 1056.8, 142.0)">s</text><text xml:space="preserve" font-family="Helvetica-Light" font-size="50.0" fill="#51A7F9" transform="matrix(1.00, 0.00, -0.00, -1.00, 1081.8, 142.0)">e</text><text xml:space="preserve" font-family="Helvetica-Light" font-size="50.0" fill="#51A7F9" transform="matrix(1.00, 0.00, -0.00, -1.00, 1109.6, 142.0)">a</text><text xml:space="preserve" font-family="Helvetica-Light" font-size="50.0" fill="#51A7F9" transform="matrix(1.00, 0.00, -0.00, -1.00, 1137.4, 142.0)">r</text><text xml:space="preserve" font-family="Helvetica-Light" font-size="50.0" fill="#51A7F9" transform="matrix(1.00, 0.00, -0.00, -1.00, 1153.2, 142.0)">c</text><text xml:space="preserve" font-family="Helvetica-Light" font-size="50.0" fill="#51A7F9" transform="matrix(1.00, 0.00, -0.00, -1.00, 1181.0, 142.0)">h</text><text xml:space="preserve" font-family="Helvetica-Light" font-size="50.0" fill="#51A7F9" transform="matrix(1.00, 0.00, -0.00, -1.00, 1208.8, 142.0)">=</text><text xml:space="preserve" font-family="Helvetica-Light" font-size="50.0" fill="#51A7F9" transform="matrix(1.00, 0.00, -0.00, -1.00, 1241.8, 142.0)">ﬂ</text><text xml:space="preserve" font-family="Helvetica-Light" font-size="50.0" fill="#51A7F9" transform="matrix(1.00, 0.00, -0.00, -1.00, 1266.8, 142.0)">e</text><text xml:space="preserve" font-family="Helvetica-Light" font-size="50.0" fill="#51A7F9" transform="matrix(1.00, 0.00, -0.00, -1.00, 1294.5, 142.0)">x</text><g><clipPath id="clip-31"><path d="M 599.7 136.0 L 1319.3 136.0 L 1319.3 140.5 L 599.7 140.5 Z M 599.7 136.0 "></path></clipPath><g clip-path="url(#clip-31)"><path d="M 5.2 56.9 L 723.7 56.9 " fill="none" stroke="#51A7F9" stroke-width="2.50" stroke-miterlimit="0.00" transform="matrix(1.00, 0.00, 0.00, -1.00, 595.6, 195.1)"></path></g></g><image xlink:href="../../D22E41F2-7266-4873-A9CF-2FF93D6DF4BE/assets/443613D1C0B7FA4C3D747C2374A21D9D.jpeg" width="311.00" height="202.00" transform="matrix(1.00, 0.00, -0.00, -1.00, 805.0, 862.0)"></image><image xlink:href="../../D354807F-EFA9-4B86-9A7B-629B33E195CE/assets/3E2D5FF7A5C07868584F838ED8006CF1.jpeg" width="66.00" height="76.00" transform="matrix(1.00, 0.00, -0.00, -1.00, 1629.0, 543.0)"></image></g></svg>