<?xml version="1.0" encoding="UTF-8" standalone="no"?><svg xmlns="http://www.w3.org/2000/svg" xmlns:xlink="http://www.w3.org/1999/xlink" clip-rule="evenodd" stroke-miterlimit="4.00" viewBox="0 0 720 61"><desc>SVG generated by Keynote</desc><defs></defs><g transform="matrix(1.00, 0.00, -0.00, -1.00, 0.0, 61.0)"><text xml:space="preserve" font-family="Helvetica-Light" font-size="50.0" fill="#51A7F9" transform="matrix(1.00, 0.00, -0.00, -1.00, 1.0, 12.0)">h</text><text xml:space="preserve" font-family="Helvetica-Light" font-size="50.0" fill="#51A7F9" transform="matrix(1.00, 0.00, -0.00, -1.00, 28.8, 12.0)">t</text><text xml:space="preserve" font-family="Helvetica-Light" font-size="50.0" fill="#51A7F9" transform="matrix(1.00, 0.00, -0.00, -1.00, 42.7, 12.0)">t</text><text xml:space="preserve" font-family="Helvetica-Light" font-size="50.0" fill="#51A7F9" transform="matrix(1.00, 0.00, -0.00, -1.00, 56.6, 12.0)">p</text><text xml:space="preserve" font-family="Helvetica-Light" font-size="50.0" fill="#51A7F9" transform="matrix(1.00, 0.00, -0.00, -1.00, 87.2, 12.0)">:</text><text xml:space="preserve" font-family="Helvetica-Light" font-size="50.0" fill="#51A7F9" transform="matrix(1.00, 0.00, -0.00, -1.00, 101.1, 12.0)">/</text><text xml:space="preserve" font-family="Helvetica-Light" font-size="50.0" fill="#51A7F9" transform="matrix(1.00, 0.00, -0.00, -1.00, 115.0, 12.0)">/</text><text xml:space="preserve" font-family="Helvetica-Light" font-size="50.0" fill="#51A7F9" transform="matrix(1.00, 0.00, -0.00, -1.00, 128.9, 12.0)">c</text><text xml:space="preserve" font-family="Helvetica-Light" font-size="50.0" fill="#51A7F9" transform="matrix(1.00, 0.00, -0.00, -1.00, 156.7, 12.0)">a</text><text xml:space="preserve" font-family="Helvetica-Light" font-size="50.0" fill="#51A7F9" transform="matrix(1.00, 0.00, -0.00, -1.00, 184.5, 12.0)">n</text><text xml:space="preserve" font-family="Helvetica-Light" font-size="50.0" fill="#51A7F9" transform="matrix(1.00, 0.00, -0.00, -1.00, 212.3, 12.0)">i</text><text xml:space="preserve" font-family="Helvetica-Light" font-size="50.0" fill="#51A7F9" transform="matrix(1.00, 0.00, -0.00, -1.00, 223.4, 12.0)">u</text><text xml:space="preserve" font-family="Helvetica-Light" font-size="50.0" fill="#51A7F9" transform="matrix(1.00, 0.00, -0.00, -1.00, 251.2, 12.0)">s</text><text xml:space="preserve" font-family="Helvetica-Light" font-size="50.0" fill="#51A7F9" transform="matrix(1.00, 0.00, -0.00, -1.00, 276.2, 12.0)">e</text><text xml:space="preserve" font-family="Helvetica-Light" font-size="50.0" fill="#51A7F9" transform="matrix(1.00, 0.00, -0.00, -1.00, 304.0, 12.0)">.</text><text xml:space="preserve" font-family="Helvetica-Light" font-size="50.0" fill="#51A7F9" transform="matrix(1.00, 0.00, -0.00, -1.00, 317.9, 12.0)">c</text><text xml:space="preserve" font-family="Helvetica-Light" font-size="50.0" fill="#51A7F9" transform="matrix(1.00, 0.00, -0.00, -1.00, 345.7, 12.0)">o</text><text xml:space="preserve" font-family="Helvetica-Light" font-size="50.0" fill="#51A7F9" transform="matrix(1.00, 0.00, -0.00, -1.00, 373.5, 12.0)">m</text><text xml:space="preserve" font-family="Helvetica-Light" font-size="50.0" fill="#51A7F9" transform="matrix(1.00, 0.00, -0.00, -1.00, 415.1, 12.0)">/</text><text xml:space="preserve" font-family="Helvetica-Light" font-size="50.0" fill="#51A7F9" transform="matrix(1.00, 0.00, -0.00, -1.00, 429.0, 12.0)">#</text><text xml:space="preserve" font-family="Helvetica-Light" font-size="50.0" fill="#51A7F9" transform="matrix(1.00, 0.00, -0.00, -1.00, 456.8, 12.0)">s</text><text xml:space="preserve" font-family="Helvetica-Light" font-size="50.0" fill="#51A7F9" transform="matrix(1.00, 0.00, -0.00, -1.00, 481.8, 12.0)">e</text><text xml:space="preserve" font-family="Helvetica-Light" font-size="50.0" fill="#51A7F9" transform="matrix(1.00, 0.00, -0.00, -1.00, 509.6, 12.0)">a</text><text xml:space="preserve" font-family="Helvetica-Light" font-size="50.0" fill="#51A7F9" transform="matrix(1.00, 0.00, -0.00, -1.00, 537.4, 12.0)">r</text><text xml:space="preserve" font-family="Helvetica-Light" font-size="50.0" fill="#51A7F9" transform="matrix(1.00, 0.00, -0.00, -1.00, 553.2, 12.0)">c</text><text xml:space="preserve" font-family="Helvetica-Light" font-size="50.0" fill="#51A7F9" transform="matrix(1.00, 0.00, -0.00, -1.00, 581.0, 12.0)">h</text><text xml:space="preserve" font-family="Helvetica-Light" font-size="50.0" fill="#51A7F9" transform="matrix(1.00, 0.00, -0.00, -1.00, 608.8, 12.0)">=</text><text xml:space="preserve" font-family="Helvetica-Light" font-size="50.0" fill="#51A7F9" transform="matrix(1.00, 0.00, -0.00, -1.00, 641.8, 12.0)">ﬂ</text><text xml:space="preserve" font-family="Helvetica-Light" font-size="50.0" fill="#51A7F9" transform="matrix(1.00, 0.00, -0.00, -1.00, 666.8, 12.0)">e</text><text xml:space="preserve" font-family="Helvetica-Light" font-size="50.0" fill="#51A7F9" transform="matrix(1.00, 0.00, -0.00, -1.00, 694.5, 12.0)">x</text><g><clipPath id="clip-29"><path d="M -0.3 6.0 L 719.3 6.0 L 719.3 10.5 L -0.3 10.5 Z M -0.3 6.0 "></path></clipPath><g clip-path="url(#clip-29)"><path d="M 5.2 56.9 L 723.7 56.9 " fill="none" stroke="#51A7F9" stroke-width="2.50" stroke-miterlimit="0.00" transform="matrix(1.00, 0.00, 0.00, -1.00, -4.4, 65.1)"></path></g></g></g></svg>