<?xml version="1.0" encoding="UTF-8" standalone="no"?><svg xmlns="http://www.w3.org/2000/svg" xmlns:xlink="http://www.w3.org/1999/xlink" clip-rule="evenodd" stroke-miterlimit="4.00" viewBox="0 0 1920 1080"><desc>SVG generated by Keynote</desc><defs></defs><g transform="matrix(1.00, 0.00, -0.00, -1.00, 0.0, 1080.0)"><path d="M 0.0 1080.0 L 1920.0 1080.0 L 1920.0 0.0 L 0.0 0.0 Z M 0.0 1080.0 " fill="#FEFFFF"></path><text xml:space="preserve" font-family="Helvetica-Bold" font-weight="bold" font-size="44.0" fill="#51A7F9" transform="matrix(1.00, 0.00, -0.00, -1.00, 108.0, 769.0)">Ö</text><text xml:space="preserve" font-family="Helvetica-Bold" font-weight="bold" font-size="44.0" fill="#51A7F9" transform="matrix(1.00, 0.00, -0.00, -1.00, 142.2, 769.0)">ğ</text><text xml:space="preserve" font-family="Helvetica-Bold" font-weight="bold" font-size="44.0" fill="#51A7F9" transform="matrix(1.00, 0.00, -0.00, -1.00, 169.1, 769.0)">e</text><text xml:space="preserve" font-family="Helvetica-Bold" font-weight="bold" font-size="44.0" fill="#51A7F9" transform="matrix(1.00, 0.00, -0.00, -1.00, 193.6, 769.0)"> </text><text xml:space="preserve" font-family="Helvetica-Bold" font-weight="bold" font-size="44.0" fill="#51A7F9" transform="matrix(1.00, 0.00, -0.00, -1.00, 205.8, 769.0)">Ö</text><text xml:space="preserve" font-family="Helvetica-Bold" font-weight="bold" font-size="44.0" fill="#51A7F9" transform="matrix(1.00, 0.00, -0.00, -1.00, 240.0, 769.0)">z</text><text xml:space="preserve" font-family="Helvetica-Bold" font-weight="bold" font-size="44.0" fill="#51A7F9" transform="matrix(1.00, 0.00, -0.00, -1.00, 262.0, 769.0)">e</text><text xml:space="preserve" font-family="Helvetica-Bold" font-weight="bold" font-size="44.0" fill="#51A7F9" transform="matrix(1.00, 0.00, -0.00, -1.00, 286.5, 769.0)">l</text><text xml:space="preserve" font-family="Helvetica-Bold" font-weight="bold" font-size="44.0" fill="#51A7F9" transform="matrix(1.00, 0.00, -0.00, -1.00, 298.7, 769.0)">l</text><text xml:space="preserve" font-family="Helvetica-Bold" font-weight="bold" font-size="44.0" fill="#51A7F9" transform="matrix(1.00, 0.00, -0.00, -1.00, 310.9, 769.0)">i</text><text xml:space="preserve" font-family="Helvetica-Bold" font-weight="bold" font-size="44.0" fill="#51A7F9" transform="matrix(1.00, 0.00, -0.00, -1.00, 323.1, 769.0)">k</text><text xml:space="preserve" font-family="Helvetica-Bold" font-weight="bold" font-size="44.0" fill="#51A7F9" transform="matrix(1.00, 0.00, -0.00, -1.00, 347.6, 769.0)">l</text><text xml:space="preserve" font-family="Helvetica-Bold" font-weight="bold" font-size="44.0" fill="#51A7F9" transform="matrix(1.00, 0.00, -0.00, -1.00, 359.8, 769.0)">e</text><text xml:space="preserve" font-family="Helvetica-Bold" font-weight="bold" font-size="44.0" fill="#51A7F9" transform="matrix(1.00, 0.00, -0.00, -1.00, 384.3, 769.0)">r</text><text xml:space="preserve" font-family="Helvetica-Bold" font-weight="bold" font-size="44.0" fill="#51A7F9" transform="matrix(1.00, 0.00, -0.00, -1.00, 401.4, 769.0)">i</text><text xml:space="preserve" font-family="Helvetica-Bold" font-weight="bold" font-size="44.0" fill="#51A7F9" transform="matrix(1.00, 0.00, -0.00, -1.00, 413.6, 769.0)">;</text><text xml:space="preserve" font-family="Helvetica-Bold" font-weight="bold" font-size="44.0" fill="#51A7F9" transform="matrix(1.00, 0.00, -0.00, -1.00, 428.3, 769.0)"> </text><text xml:space="preserve" font-family="Helvetica-Bold" font-weight="bold" font-size="44.0" fill="#51A7F9" transform="matrix(1.00, 0.00, -0.00, -1.00, 440.5, 769.0)">Ö</text><text xml:space="preserve" font-family="Helvetica-Bold" font-weight="bold" font-size="44.0" fill="#51A7F9" transform="matrix(1.00, 0.00, -0.00, -1.00, 474.7, 769.0)">r</text><text xml:space="preserve" font-family="Helvetica-Bold" font-weight="bold" font-size="44.0" fill="#51A7F9" transform="matrix(1.00, 0.00, -0.00, -1.00, 491.9, 769.0)">:</text><text xml:space="preserve" font-family="Helvetica-Bold" font-weight="bold" font-size="44.0" fill="#51A7F9" transform="matrix(1.00, 0.00, -0.00, -1.00, 506.5, 769.0)"> </text><text xml:space="preserve" font-family="Helvetica-Bold" font-weight="bold" font-size="44.0" fill="#51A7F9" transform="matrix(1.00, 0.00, -0.00, -1.00, 518.7, 769.0)">.</text><text xml:space="preserve" font-family="Helvetica-Bold" font-weight="bold" font-size="44.0" fill="#51A7F9" transform="matrix(1.00, 0.00, -0.00, -1.00, 530.9, 769.0)">i</text><text xml:space="preserve" font-family="Helvetica-Bold" font-weight="bold" font-size="44.0" fill="#51A7F9" transform="matrix(1.00, 0.00, -0.00, -1.00, 543.2, 769.0)">t</text><text xml:space="preserve" font-family="Helvetica-Bold" font-weight="bold" font-size="44.0" fill="#51A7F9" transform="matrix(1.00, 0.00, -0.00, -1.00, 557.8, 769.0)">e</text><text xml:space="preserve" font-family="Helvetica-Bold" font-weight="bold" font-size="44.0" fill="#51A7F9" transform="matrix(1.00, 0.00, -0.00, -1.00, 582.3, 769.0)">m</text><text xml:space="preserve" font-family="Helvetica-Light" font-size="41.3" fill="#000000" transform="matrix(1.00, 0.00, -0.00, -1.00, 114.1, 664.1)">1</text><text xml:space="preserve" font-family="Helvetica-Light" font-size="41.3" fill="#000000" transform="matrix(1.00, 0.00, -0.00, -1.00, 137.0, 664.1)">.</text><text xml:space="preserve" font-family="Helvetica-Bold" font-weight="bold" font-size="41.3" fill="#000000" transform="matrix(1.00, 0.00, -0.00, -1.00, 190.0, 664.0)">o</text><text xml:space="preserve" font-family="Helvetica-Bold" font-weight="bold" font-size="41.3" fill="#000000" transform="matrix(1.00, 0.00, -0.00, -1.00, 215.2, 664.0)">r</text><text xml:space="preserve" font-family="Helvetica-Bold" font-weight="bold" font-size="41.3" fill="#000000" transform="matrix(1.00, 0.00, -0.00, -1.00, 231.3, 664.0)">d</text><text xml:space="preserve" font-family="Helvetica-Bold" font-weight="bold" font-size="41.3" fill="#000000" transform="matrix(1.00, 0.00, -0.00, -1.00, 256.5, 664.0)">e</text><text xml:space="preserve" font-family="Helvetica-Bold" font-weight="bold" font-size="41.3" fill="#000000" transform="matrix(1.00, 0.00, -0.00, -1.00, 279.5, 664.0)">r</text><text xml:space="preserve" font-family="Helvetica-Bold" font-weight="bold" font-size="41.3" fill="#000000" transform="matrix(1.00, 0.00, -0.00, -1.00, 295.5, 664.0)"> </text><text xml:space="preserve" font-family="Helvetica-Bold" font-weight="bold" font-size="41.3" fill="#000000" transform="matrix(1.00, 0.00, -0.00, -1.00, 307.0, 664.0)">:</text><text xml:space="preserve" font-family="Helvetica-Bold" font-weight="bold" font-size="41.3" fill="#000000" transform="matrix(1.00, 0.00, -0.00, -1.00, 320.7, 664.0)"> </text><text xml:space="preserve" font-family="Helvetica-Light" font-size="41.3" fill="#000000" transform="matrix(1.00, 0.00, -0.00, -1.00, 332.2, 664.0)">&lt;</text><text xml:space="preserve" font-family="Helvetica-Light" font-size="41.3" fill="#000000" transform="matrix(1.00, 0.00, -0.00, -1.00, 359.4, 664.0)">s</text><text xml:space="preserve" font-family="Helvetica-Light" font-size="41.3" fill="#000000" transform="matrix(1.00, 0.00, -0.00, -1.00, 380.1, 664.0)">a</text><text xml:space="preserve" font-family="Helvetica-Light" font-size="41.3" fill="#000000" transform="matrix(1.00, 0.00, -0.00, -1.00, 403.0, 664.0)">y</text><text xml:space="preserve" font-family="Helvetica-Light" font-size="41.3" fill="#000000" transform="matrix(1.00, 0.00, -0.00, -1.00, 423.7, 664.0)">ı</text><text xml:space="preserve" font-family="Helvetica-Light" font-size="41.3" fill="#000000" transform="matrix(1.00, 0.00, -0.00, -1.00, 432.8, 664.0)">&gt;</text><text xml:space="preserve" font-family="Helvetica-Light" font-size="41.3" fill="#000000" transform="matrix(1.00, 0.00, -0.00, -1.00, 114.1, 573.1)">2</text><text xml:space="preserve" font-family="Helvetica-Light" font-size="41.3" fill="#000000" transform="matrix(1.00, 0.00, -0.00, -1.00, 137.0, 573.1)">.</text><text xml:space="preserve" font-family="Helvetica-Bold" font-weight="bold" font-size="41.3" fill="#000000" transform="matrix(1.00, 0.00, -0.00, -1.00, 190.0, 573.0)">ﬂ</text><text xml:space="preserve" font-family="Helvetica-Bold" font-weight="bold" font-size="41.3" fill="#000000" transform="matrix(1.00, 0.00, -0.00, -1.00, 215.2, 573.0)">e</text><text xml:space="preserve" font-family="Helvetica-Bold" font-weight="bold" font-size="41.3" fill="#000000" transform="matrix(1.00, 0.00, -0.00, -1.00, 238.2, 573.0)">x</text><text xml:space="preserve" font-family="Helvetica-Bold" font-weight="bold" font-size="41.3" fill="#000000" transform="matrix(1.00, 0.00, -0.00, -1.00, 261.1, 573.0)">-</text><text xml:space="preserve" font-family="Helvetica-Bold" font-weight="bold" font-size="41.3" fill="#000000" transform="matrix(1.00, 0.00, -0.00, -1.00, 274.9, 573.0)">g</text><text xml:space="preserve" font-family="Helvetica-Bold" font-weight="bold" font-size="41.3" fill="#000000" transform="matrix(1.00, 0.00, -0.00, -1.00, 300.1, 573.0)">r</text><text xml:space="preserve" font-family="Helvetica-Bold" font-weight="bold" font-size="41.3" fill="#000000" transform="matrix(1.00, 0.00, -0.00, -1.00, 316.2, 573.0)">o</text><text xml:space="preserve" font-family="Helvetica-Bold" font-weight="bold" font-size="41.3" fill="#000000" transform="matrix(1.00, 0.00, -0.00, -1.00, 341.4, 573.0)">w</text><text xml:space="preserve" font-family="Helvetica-Bold" font-weight="bold" font-size="41.3" fill="#000000" transform="matrix(1.00, 0.00, -0.00, -1.00, 373.5, 573.0)"> </text><text xml:space="preserve" font-family="Helvetica-Bold" font-weight="bold" font-size="41.3" fill="#000000" transform="matrix(1.00, 0.00, -0.00, -1.00, 384.9, 573.0)">:</text><text xml:space="preserve" font-family="Helvetica-Bold" font-weight="bold" font-size="41.3" fill="#000000" transform="matrix(1.00, 0.00, -0.00, -1.00, 398.7, 573.0)"> </text><text xml:space="preserve" font-family="Helvetica-Light" font-size="41.3" fill="#000000" transform="matrix(1.00, 0.00, -0.00, -1.00, 410.2, 573.0)">&lt;</text><text xml:space="preserve" font-family="Helvetica-Light" font-size="41.3" fill="#000000" transform="matrix(1.00, 0.00, -0.00, -1.00, 437.4, 573.0)">s</text><text xml:space="preserve" font-family="Helvetica-Light" font-size="41.3" fill="#000000" transform="matrix(1.00, 0.00, -0.00, -1.00, 458.1, 573.0)">a</text><text xml:space="preserve" font-family="Helvetica-Light" font-size="41.3" fill="#000000" transform="matrix(1.00, 0.00, -0.00, -1.00, 481.0, 573.0)">y</text><text xml:space="preserve" font-family="Helvetica-Light" font-size="41.3" fill="#000000" transform="matrix(1.00, 0.00, -0.00, -1.00, 501.6, 573.0)">ı</text><text xml:space="preserve" font-family="Helvetica-Light" font-size="41.3" fill="#000000" transform="matrix(1.00, 0.00, -0.00, -1.00, 510.8, 573.0)">&gt;</text><text xml:space="preserve" font-family="Helvetica-Light" font-size="41.3" fill="#000000" transform="matrix(1.00, 0.00, -0.00, -1.00, 114.1, 482.1)">3</text><text xml:space="preserve" font-family="Helvetica-Light" font-size="41.3" fill="#000000" transform="matrix(1.00, 0.00, -0.00, -1.00, 137.0, 482.1)">.</text><text xml:space="preserve" font-family="Helvetica-Bold" font-weight="bold" font-size="41.3" fill="#000000" transform="matrix(1.00, 0.00, -0.00, -1.00, 190.0, 482.0)">ﬂ</text><text xml:space="preserve" font-family="Helvetica-Bold" font-weight="bold" font-size="41.3" fill="#000000" transform="matrix(1.00, 0.00, -0.00, -1.00, 215.2, 482.0)">e</text><text xml:space="preserve" font-family="Helvetica-Bold" font-weight="bold" font-size="41.3" fill="#000000" transform="matrix(1.00, 0.00, -0.00, -1.00, 238.2, 482.0)">x</text><text xml:space="preserve" font-family="Helvetica-Bold" font-weight="bold" font-size="41.3" fill="#000000" transform="matrix(1.00, 0.00, -0.00, -1.00, 261.1, 482.0)">-</text><text xml:space="preserve" font-family="Helvetica-Bold" font-weight="bold" font-size="41.3" fill="#000000" transform="matrix(1.00, 0.00, -0.00, -1.00, 274.9, 482.0)">s</text><text xml:space="preserve" font-family="Helvetica-Bold" font-weight="bold" font-size="41.3" fill="#000000" transform="matrix(1.00, 0.00, -0.00, -1.00, 297.9, 482.0)">h</text><text xml:space="preserve" font-family="Helvetica-Bold" font-weight="bold" font-size="41.3" fill="#000000" transform="matrix(1.00, 0.00, -0.00, -1.00, 323.1, 482.0)">r</text><text xml:space="preserve" font-family="Helvetica-Bold" font-weight="bold" font-size="41.3" fill="#000000" transform="matrix(1.00, 0.00, -0.00, -1.00, 339.1, 482.0)">i</text><text xml:space="preserve" font-family="Helvetica-Bold" font-weight="bold" font-size="41.3" fill="#000000" transform="matrix(1.00, 0.00, -0.00, -1.00, 350.6, 482.0)">n</text><text xml:space="preserve" font-family="Helvetica-Bold" font-weight="bold" font-size="41.3" fill="#000000" transform="matrix(1.00, 0.00, -0.00, -1.00, 375.8, 482.0)">k</text><text xml:space="preserve" font-family="Helvetica-Bold" font-weight="bold" font-size="41.3" fill="#000000" transform="matrix(1.00, 0.00, -0.00, -1.00, 398.8, 482.0)"> </text><text xml:space="preserve" font-family="Helvetica-Bold" font-weight="bold" font-size="41.3" fill="#000000" transform="matrix(1.00, 0.00, -0.00, -1.00, 410.2, 482.0)">:</text><text xml:space="preserve" font-family="Helvetica-Bold" font-weight="bold" font-size="41.3" fill="#000000" transform="matrix(1.00, 0.00, -0.00, -1.00, 424.0, 482.0)"> </text><text xml:space="preserve" font-family="Helvetica-Bold" font-weight="bold" font-size="41.3" fill="#000000" transform="matrix(1.00, 0.00, -0.00, -1.00, 435.4, 482.0)"> </text><text xml:space="preserve" font-family="Helvetica-Light" font-size="41.3" fill="#000000" transform="matrix(1.00, 0.00, -0.00, -1.00, 446.9, 482.0)">&lt;</text><text xml:space="preserve" font-family="Helvetica-Light" font-size="41.3" fill="#000000" transform="matrix(1.00, 0.00, -0.00, -1.00, 474.2, 482.0)">s</text><text xml:space="preserve" font-family="Helvetica-Light" font-size="41.3" fill="#000000" transform="matrix(1.00, 0.00, -0.00, -1.00, 494.8, 482.0)">a</text><text xml:space="preserve" font-family="Helvetica-Light" font-size="41.3" fill="#000000" transform="matrix(1.00, 0.00, -0.00, -1.00, 517.7, 482.0)">y</text><text xml:space="preserve" font-family="Helvetica-Light" font-size="41.3" fill="#000000" transform="matrix(1.00, 0.00, -0.00, -1.00, 538.4, 482.0)">ı</text><text xml:space="preserve" font-family="Helvetica-Light" font-size="41.3" fill="#000000" transform="matrix(1.00, 0.00, -0.00, -1.00, 547.6, 482.0)">&gt;</text><text xml:space="preserve" font-family="Helvetica-Light" font-size="41.3" fill="#000000" transform="matrix(1.00, 0.00, -0.00, -1.00, 114.1, 391.1)">4</text><text xml:space="preserve" font-family="Helvetica-Light" font-size="41.3" fill="#000000" transform="matrix(1.00, 0.00, -0.00, -1.00, 137.0, 391.1)">.</text><text xml:space="preserve" font-family="Helvetica-Bold" font-weight="bold" font-size="41.3" fill="#000000" transform="matrix(1.00, 0.00, -0.00, -1.00, 190.0, 391.0)">ﬂ</text><text xml:space="preserve" font-family="Helvetica-Bold" font-weight="bold" font-size="41.3" fill="#000000" transform="matrix(1.00, 0.00, -0.00, -1.00, 215.2, 391.0)">e</text><text xml:space="preserve" font-family="Helvetica-Bold" font-weight="bold" font-size="41.3" fill="#000000" transform="matrix(1.00, 0.00, -0.00, -1.00, 238.2, 391.0)">x</text><text xml:space="preserve" font-family="Helvetica-Bold" font-weight="bold" font-size="41.3" fill="#000000" transform="matrix(1.00, 0.00, -0.00, -1.00, 261.1, 391.0)">-</text><text xml:space="preserve" font-family="Helvetica-Bold" font-weight="bold" font-size="41.3" fill="#000000" transform="matrix(1.00, 0.00, -0.00, -1.00, 274.9, 391.0)">b</text><text xml:space="preserve" font-family="Helvetica-Bold" font-weight="bold" font-size="41.3" fill="#000000" transform="matrix(1.00, 0.00, -0.00, -1.00, 300.1, 391.0)">a</text><text xml:space="preserve" font-family="Helvetica-Bold" font-weight="bold" font-size="41.3" fill="#000000" transform="matrix(1.00, 0.00, -0.00, -1.00, 323.1, 391.0)">s</text><text xml:space="preserve" font-family="Helvetica-Bold" font-weight="bold" font-size="41.3" fill="#000000" transform="matrix(1.00, 0.00, -0.00, -1.00, 346.0, 391.0)">i</text><text xml:space="preserve" font-family="Helvetica-Bold" font-weight="bold" font-size="41.3" fill="#000000" transform="matrix(1.00, 0.00, -0.00, -1.00, 357.5, 391.0)">s</text><text xml:space="preserve" font-family="Helvetica-Bold" font-weight="bold" font-size="41.3" fill="#000000" transform="matrix(1.00, 0.00, -0.00, -1.00, 380.5, 391.0)"> </text><text xml:space="preserve" font-family="Helvetica-Bold" font-weight="bold" font-size="41.3" fill="#000000" transform="matrix(1.00, 0.00, -0.00, -1.00, 391.9, 391.0)">:</text><text xml:space="preserve" font-family="Helvetica-Bold" font-weight="bold" font-size="41.3" fill="#000000" transform="matrix(1.00, 0.00, -0.00, -1.00, 405.7, 391.0)"> </text><text xml:space="preserve" font-family="Helvetica-Light" font-size="41.3" fill="#000000" transform="matrix(1.00, 0.00, -0.00, -1.00, 417.1, 391.0)">&lt;</text><text xml:space="preserve" font-family="Helvetica-Light" font-size="41.3" fill="#000000" transform="matrix(1.00, 0.00, -0.00, -1.00, 444.4, 391.0)">y</text><text xml:space="preserve" font-family="Helvetica-Light" font-size="41.3" fill="#000000" transform="matrix(1.00, 0.00, -0.00, -1.00, 465.0, 391.0)">ü</text><text xml:space="preserve" font-family="Helvetica-Light" font-size="41.3" fill="#000000" transform="matrix(1.00, 0.00, -0.00, -1.00, 488.0, 391.0)">z</text><text xml:space="preserve" font-family="Helvetica-Light" font-size="41.3" fill="#000000" transform="matrix(1.00, 0.00, -0.00, -1.00, 508.6, 391.0)">d</text><text xml:space="preserve" font-family="Helvetica-Light" font-size="41.3" fill="#000000" transform="matrix(1.00, 0.00, -0.00, -1.00, 533.8, 391.0)">e</text><text xml:space="preserve" font-family="Helvetica-Light" font-size="41.3" fill="#000000" transform="matrix(1.00, 0.00, -0.00, -1.00, 556.8, 391.0)">&gt;</text><text xml:space="preserve" font-family="Helvetica-Light" font-size="41.3" fill="#000000" transform="matrix(1.00, 0.00, -0.00, -1.00, 584.0, 391.0)"> </text><text xml:space="preserve" font-family="Helvetica-Light" font-size="41.3" fill="#000000" transform="matrix(1.00, 0.00, -0.00, -1.00, 595.5, 391.0)">|</text><text xml:space="preserve" font-family="Helvetica-Light" font-size="41.3" fill="#000000" transform="matrix(1.00, 0.00, -0.00, -1.00, 604.7, 391.0)">|</text><text xml:space="preserve" font-family="Helvetica-Light" font-size="41.3" fill="#000000" transform="matrix(1.00, 0.00, -0.00, -1.00, 613.8, 391.0)"> </text><text xml:space="preserve" font-family="Helvetica-Light" font-size="41.3" fill="#000000" transform="matrix(1.00, 0.00, -0.00, -1.00, 625.3, 391.0)">&lt;</text><text xml:space="preserve" font-family="Helvetica-Light" font-size="41.3" fill="#000000" transform="matrix(1.00, 0.00, -0.00, -1.00, 652.5, 391.0)">d</text><text xml:space="preserve" font-family="Helvetica-Light" font-size="41.3" fill="#000000" transform="matrix(1.00, 0.00, -0.00, -1.00, 677.8, 391.0)">e</text><text xml:space="preserve" font-family="Helvetica-Light" font-size="41.3" fill="#000000" transform="matrix(1.00, 0.00, -0.00, -1.00, 700.7, 391.0)">ğ</text><text xml:space="preserve" font-family="Helvetica-Light" font-size="41.3" fill="#000000" transform="matrix(1.00, 0.00, -0.00, -1.00, 725.9, 391.0)">e</text><text xml:space="preserve" font-family="Helvetica-Light" font-size="41.3" fill="#000000" transform="matrix(1.00, 0.00, -0.00, -1.00, 748.9, 391.0)">r</text><text xml:space="preserve" font-family="Helvetica-Light" font-size="41.3" fill="#000000" transform="matrix(1.00, 0.00, -0.00, -1.00, 762.6, 391.0)">&gt;</text><text xml:space="preserve" font-family="Helvetica-Light" font-size="41.3" fill="#000000" transform="matrix(1.00, 0.00, -0.00, -1.00, 789.9, 391.0)"> </text><text xml:space="preserve" font-family="Helvetica-Light" font-size="41.3" fill="#000000" transform="matrix(1.00, 0.00, -0.00, -1.00, 801.4, 391.0)">|</text><text xml:space="preserve" font-family="Helvetica-Light" font-size="41.3" fill="#000000" transform="matrix(1.00, 0.00, -0.00, -1.00, 810.5, 391.0)">|</text><text xml:space="preserve" font-family="Helvetica-Light" font-size="41.3" fill="#000000" transform="matrix(1.00, 0.00, -0.00, -1.00, 819.7, 391.0)"> </text><text xml:space="preserve" font-family="Helvetica-Light" font-size="41.3" fill="#000000" transform="matrix(1.00, 0.00, -0.00, -1.00, 831.2, 391.0)">i</text><text xml:space="preserve" font-family="Helvetica-Light" font-size="41.3" fill="#000000" transform="matrix(1.00, 0.00, -0.00, -1.00, 840.3, 391.0)">n</text><text xml:space="preserve" font-family="Helvetica-Light" font-size="41.3" fill="#000000" transform="matrix(1.00, 0.00, -0.00, -1.00, 863.3, 391.0)">i</text><text xml:space="preserve" font-family="Helvetica-Light" font-size="41.3" fill="#000000" transform="matrix(1.00, 0.00, -0.00, -1.00, 872.4, 391.0)">t</text><text xml:space="preserve" font-family="Helvetica-Light" font-size="41.3" fill="#000000" transform="matrix(1.00, 0.00, -0.00, -1.00, 883.9, 391.0)">i</text><text xml:space="preserve" font-family="Helvetica-Light" font-size="41.3" fill="#000000" transform="matrix(1.00, 0.00, -0.00, -1.00, 893.1, 391.0)">a</text><text xml:space="preserve" font-family="Helvetica-Light" font-size="41.3" fill="#000000" transform="matrix(1.00, 0.00, -0.00, -1.00, 916.0, 391.0)">l</text><text xml:space="preserve" font-family="Helvetica-Light" font-size="41.3" fill="#000000" transform="matrix(1.00, 0.00, -0.00, -1.00, 925.2, 391.0)"> </text><text xml:space="preserve" font-family="Helvetica-Light" font-size="41.3" fill="#000000" transform="matrix(1.00, 0.00, -0.00, -1.00, 936.7, 391.0)">|</text><text xml:space="preserve" font-family="Helvetica-Light" font-size="41.3" fill="#000000" transform="matrix(1.00, 0.00, -0.00, -1.00, 945.8, 391.0)">|</text><text xml:space="preserve" font-family="Helvetica-Light" font-size="41.3" fill="#000000" transform="matrix(1.00, 0.00, -0.00, -1.00, 955.0, 391.0)"> </text><text xml:space="preserve" font-family="Helvetica-Light" font-size="41.3" fill="#000000" transform="matrix(1.00, 0.00, -0.00, -1.00, 966.5, 391.0)">a</text><text xml:space="preserve" font-family="Helvetica-Light" font-size="41.3" fill="#000000" transform="matrix(1.00, 0.00, -0.00, -1.00, 989.4, 391.0)">u</text><text xml:space="preserve" font-family="Helvetica-Light" font-size="41.3" fill="#000000" transform="matrix(1.00, 0.00, -0.00, -1.00, 1012.4, 391.0)">t</text><text xml:space="preserve" font-family="Helvetica-Light" font-size="41.3" fill="#000000" transform="matrix(1.00, 0.00, -0.00, -1.00, 1023.9, 391.0)">o</text><text xml:space="preserve" font-family="Helvetica-Light" font-size="41.3" fill="#000000" transform="matrix(1.00, 0.00, -0.00, -1.00, 1046.8, 391.0)"> </text><text xml:space="preserve" font-family="Helvetica-Light" font-size="41.3" fill="#000000" transform="matrix(1.00, 0.00, -0.00, -1.00, 1058.3, 391.0)">|</text><text xml:space="preserve" font-family="Helvetica-Light" font-size="41.3" fill="#000000" transform="matrix(1.00, 0.00, -0.00, -1.00, 1067.4, 391.0)">|</text><text xml:space="preserve" font-family="Helvetica-Light" font-size="41.3" fill="#000000" transform="matrix(1.00, 0.00, -0.00, -1.00, 1076.6, 391.0)"> </text><text xml:space="preserve" font-family="Helvetica-Light" font-size="41.3" fill="#000000" transform="matrix(1.00, 0.00, -0.00, -1.00, 1088.1, 391.0)">m</text><text xml:space="preserve" font-family="Helvetica-Light" font-size="41.3" fill="#000000" transform="matrix(1.00, 0.00, -0.00, -1.00, 1122.5, 391.0)">a</text><text xml:space="preserve" font-family="Helvetica-Light" font-size="41.3" fill="#000000" transform="matrix(1.00, 0.00, -0.00, -1.00, 1145.4, 391.0)">i</text><text xml:space="preserve" font-family="Helvetica-Light" font-size="41.3" fill="#000000" transform="matrix(1.00, 0.00, -0.00, -1.00, 1154.6, 391.0)">n</text><text xml:space="preserve" font-family="Helvetica-Light" font-size="41.3" fill="#000000" transform="matrix(1.00, 0.00, -0.00, -1.00, 1177.5, 391.0)">-</text><text xml:space="preserve" font-family="Helvetica-Light" font-size="41.3" fill="#000000" transform="matrix(1.00, 0.00, -0.00, -1.00, 1191.3, 391.0)">s</text><text xml:space="preserve" font-family="Helvetica-Light" font-size="41.3" fill="#000000" transform="matrix(1.00, 0.00, -0.00, -1.00, 1211.9, 391.0)">i</text><text xml:space="preserve" font-family="Helvetica-Light" font-size="41.3" fill="#000000" transform="matrix(1.00, 0.00, -0.00, -1.00, 1221.1, 391.0)">z</text><text xml:space="preserve" font-family="Helvetica-Light" font-size="41.3" fill="#000000" transform="matrix(1.00, 0.00, -0.00, -1.00, 1241.7, 391.0)">e</text><text xml:space="preserve" font-family="Helvetica-Light" font-size="41.3" fill="#000000" transform="matrix(1.00, 0.00, -0.00, -1.00, 1264.7, 391.0)"> </text><text xml:space="preserve" font-family="Helvetica-Light" font-size="41.3" fill="#000000" transform="matrix(1.00, 0.00, -0.00, -1.00, 114.1, 300.1)">5</text><text xml:space="preserve" font-family="Helvetica-Light" font-size="41.3" fill="#000000" transform="matrix(1.00, 0.00, -0.00, -1.00, 137.0, 300.1)">.</text><text xml:space="preserve" font-family="Helvetica-Bold" font-weight="bold" font-size="41.3" fill="#000000" transform="matrix(1.00, 0.00, -0.00, -1.00, 190.0, 300.0)">ﬂ</text><text xml:space="preserve" font-family="Helvetica-Bold" font-weight="bold" font-size="41.3" fill="#000000" transform="matrix(1.00, 0.00, -0.00, -1.00, 215.2, 300.0)">e</text><text xml:space="preserve" font-family="Helvetica-Bold" font-weight="bold" font-size="41.3" fill="#000000" transform="matrix(1.00, 0.00, -0.00, -1.00, 238.2, 300.0)">x</text><text xml:space="preserve" font-family="Helvetica-Bold" font-weight="bold" font-size="41.3" fill="#000000" transform="matrix(1.00, 0.00, -0.00, -1.00, 261.1, 300.0)"> </text><text xml:space="preserve" font-family="Helvetica-Bold" font-weight="bold" font-size="41.3" fill="#000000" transform="matrix(1.00, 0.00, -0.00, -1.00, 272.6, 300.0)">:</text><text xml:space="preserve" font-family="Helvetica-Bold" font-weight="bold" font-size="41.3" fill="#000000" transform="matrix(1.00, 0.00, -0.00, -1.00, 286.3, 300.0)"> </text><text xml:space="preserve" font-family="Helvetica-Light" font-size="41.3" fill="#000000" transform="matrix(1.00, 0.00, -0.00, -1.00, 297.8, 300.0)">&lt;</text><text xml:space="preserve" font-family="Helvetica-Light" font-size="41.3" fill="#000000" transform="matrix(1.00, 0.00, -0.00, -1.00, 325.1, 300.0)">’</text><text xml:space="preserve" font-family="Helvetica-Light" font-size="41.3" fill="#000000" transform="matrix(1.00, 0.00, -0.00, -1.00, 334.2, 300.0)">ﬂ</text><text xml:space="preserve" font-family="Helvetica-Light" font-size="41.3" fill="#000000" transform="matrix(1.00, 0.00, -0.00, -1.00, 354.9, 300.0)">e</text><text xml:space="preserve" font-family="Helvetica-Light" font-size="41.3" fill="#000000" transform="matrix(1.00, 0.00, -0.00, -1.00, 377.8, 300.0)">x</text><text xml:space="preserve" font-family="Helvetica-Light" font-size="41.3" fill="#000000" transform="matrix(1.00, 0.00, -0.00, -1.00, 398.5, 300.0)">-</text><text xml:space="preserve" font-family="Helvetica-Light" font-size="41.3" fill="#000000" transform="matrix(1.00, 0.00, -0.00, -1.00, 412.2, 300.0)">g</text><text xml:space="preserve" font-family="Helvetica-Light" font-size="41.3" fill="#000000" transform="matrix(1.00, 0.00, -0.00, -1.00, 437.4, 300.0)">r</text><text xml:space="preserve" font-family="Helvetica-Light" font-size="41.3" fill="#000000" transform="matrix(1.00, 0.00, -0.00, -1.00, 450.4, 300.0)">o</text><text xml:space="preserve" font-family="Helvetica-Light" font-size="41.3" fill="#000000" transform="matrix(1.00, 0.00, -0.00, -1.00, 473.4, 300.0)">w</text><text xml:space="preserve" font-family="Helvetica-Light" font-size="41.3" fill="#000000" transform="matrix(1.00, 0.00, -0.00, -1.00, 503.2, 300.0)">’</text><text xml:space="preserve" font-family="Helvetica-Light" font-size="41.3" fill="#000000" transform="matrix(1.00, 0.00, -0.00, -1.00, 512.3, 300.0)">&gt;</text><text xml:space="preserve" font-family="Helvetica-Light" font-size="41.3" fill="#000000" transform="matrix(1.00, 0.00, -0.00, -1.00, 539.6, 300.0)"> </text><text xml:space="preserve" font-family="Helvetica-Light" font-size="41.3" fill="#000000" transform="matrix(1.00, 0.00, -0.00, -1.00, 551.1, 300.0)">&lt;</text><text xml:space="preserve" font-family="Helvetica-Light" font-size="41.3" fill="#000000" transform="matrix(1.00, 0.00, -0.00, -1.00, 578.3, 300.0)">’</text><text xml:space="preserve" font-family="Helvetica-Light" font-size="41.3" fill="#000000" transform="matrix(1.00, 0.00, -0.00, -1.00, 587.5, 300.0)">ﬂ</text><text xml:space="preserve" font-family="Helvetica-Light" font-size="41.3" fill="#000000" transform="matrix(1.00, 0.00, -0.00, -1.00, 608.1, 300.0)">e</text><text xml:space="preserve" font-family="Helvetica-Light" font-size="41.3" fill="#000000" transform="matrix(1.00, 0.00, -0.00, -1.00, 631.1, 300.0)">x</text><text xml:space="preserve" font-family="Helvetica-Light" font-size="41.3" fill="#000000" transform="matrix(1.00, 0.00, -0.00, -1.00, 651.7, 300.0)">-</text><text xml:space="preserve" font-family="Helvetica-Light" font-size="41.3" fill="#000000" transform="matrix(1.00, 0.00, -0.00, -1.00, 665.5, 300.0)">s</text><text xml:space="preserve" font-family="Helvetica-Light" font-size="41.3" fill="#000000" transform="matrix(1.00, 0.00, -0.00, -1.00, 686.1, 300.0)">h</text><text xml:space="preserve" font-family="Helvetica-Light" font-size="41.3" fill="#000000" transform="matrix(1.00, 0.00, -0.00, -1.00, 709.0, 300.0)">r</text><text xml:space="preserve" font-family="Helvetica-Light" font-size="41.3" fill="#000000" transform="matrix(1.00, 0.00, -0.00, -1.00, 722.8, 300.0)">i</text><text xml:space="preserve" font-family="Helvetica-Light" font-size="41.3" fill="#000000" transform="matrix(1.00, 0.00, -0.00, -1.00, 732.0, 300.0)">n</text><text xml:space="preserve" font-family="Helvetica-Light" font-size="41.3" fill="#000000" transform="matrix(1.00, 0.00, -0.00, -1.00, 754.9, 300.0)">k</text><text xml:space="preserve" font-family="Helvetica-Light" font-size="41.3" fill="#000000" transform="matrix(1.00, 0.00, -0.00, -1.00, 775.5, 300.0)">’</text><text xml:space="preserve" font-family="Helvetica-Light" font-size="41.3" fill="#000000" transform="matrix(1.00, 0.00, -0.00, -1.00, 784.7, 300.0)">&gt;</text><text xml:space="preserve" font-family="Helvetica-Light" font-size="41.3" fill="#000000" transform="matrix(1.00, 0.00, -0.00, -1.00, 812.0, 300.0)"> </text><text xml:space="preserve" font-family="Helvetica-Light" font-size="41.3" fill="#000000" transform="matrix(1.00, 0.00, -0.00, -1.00, 823.4, 300.0)">&lt;</text><text xml:space="preserve" font-family="Helvetica-Light" font-size="41.3" fill="#000000" transform="matrix(1.00, 0.00, -0.00, -1.00, 850.7, 300.0)">’</text><text xml:space="preserve" font-family="Helvetica-Light" font-size="41.3" fill="#000000" transform="matrix(1.00, 0.00, -0.00, -1.00, 859.8, 300.0)">ﬂ</text><text xml:space="preserve" font-family="Helvetica-Light" font-size="41.3" fill="#000000" transform="matrix(1.00, 0.00, -0.00, -1.00, 880.5, 300.0)">e</text><text xml:space="preserve" font-family="Helvetica-Light" font-size="41.3" fill="#000000" transform="matrix(1.00, 0.00, -0.00, -1.00, 903.4, 300.0)">x</text><text xml:space="preserve" font-family="Helvetica-Light" font-size="41.3" fill="#000000" transform="matrix(1.00, 0.00, -0.00, -1.00, 924.1, 300.0)">-</text><text xml:space="preserve" font-family="Helvetica-Light" font-size="41.3" fill="#000000" transform="matrix(1.00, 0.00, -0.00, -1.00, 937.8, 300.0)">b</text><text xml:space="preserve" font-family="Helvetica-Light" font-size="41.3" fill="#000000" transform="matrix(1.00, 0.00, -0.00, -1.00, 963.0, 300.0)">a</text><text xml:space="preserve" font-family="Helvetica-Light" font-size="41.3" fill="#000000" transform="matrix(1.00, 0.00, -0.00, -1.00, 986.0, 300.0)">s</text><text xml:space="preserve" font-family="Helvetica-Light" font-size="41.3" fill="#000000" transform="matrix(1.00, 0.00, -0.00, -1.00, 1006.6, 300.0)">i</text><text xml:space="preserve" font-family="Helvetica-Light" font-size="41.3" fill="#000000" transform="matrix(1.00, 0.00, -0.00, -1.00, 1015.8, 300.0)">s</text><text xml:space="preserve" font-family="Helvetica-Light" font-size="41.3" fill="#000000" transform="matrix(1.00, 0.00, -0.00, -1.00, 1036.4, 300.0)">’</text><text xml:space="preserve" font-family="Helvetica-Light" font-size="41.3" fill="#000000" transform="matrix(1.00, 0.00, -0.00, -1.00, 1045.6, 300.0)">&gt;</text><text xml:space="preserve" font-family="Helvetica-Light" font-size="41.3" fill="#000000" transform="matrix(1.00, 0.00, -0.00, -1.00, 1072.8, 300.0)"> </text><text xml:space="preserve" font-family="Helvetica-Light" font-size="41.3" fill="#000000" transform="matrix(1.00, 0.00, -0.00, -1.00, 1084.3, 300.0)">(</text><text xml:space="preserve" font-family="Helvetica-Light" font-size="41.3" fill="#000000" transform="matrix(1.00, 0.00, -0.00, -1.00, 1098.1, 300.0)">k</text><text xml:space="preserve" font-family="Helvetica-Light" font-size="41.3" fill="#000000" transform="matrix(1.00, 0.00, -0.00, -1.00, 1118.7, 300.0)">ı</text><text xml:space="preserve" font-family="Helvetica-Light" font-size="41.3" fill="#000000" transform="matrix(1.00, 0.00, -0.00, -1.00, 1127.9, 300.0)">s</text><text xml:space="preserve" font-family="Helvetica-Light" font-size="41.3" fill="#000000" transform="matrix(1.00, 0.00, -0.00, -1.00, 1148.5, 300.0)">a</text><text xml:space="preserve" font-family="Helvetica-Light" font-size="41.3" fill="#000000" transform="matrix(1.00, 0.00, -0.00, -1.00, 1171.5, 300.0)">y</text><text xml:space="preserve" font-family="Helvetica-Light" font-size="41.3" fill="#000000" transform="matrix(1.00, 0.00, -0.00, -1.00, 1192.1, 300.0)">o</text><text xml:space="preserve" font-family="Helvetica-Light" font-size="41.3" fill="#000000" transform="matrix(1.00, 0.00, -0.00, -1.00, 1215.1, 300.0)">l</text><text xml:space="preserve" font-family="Helvetica-Light" font-size="41.3" fill="#000000" transform="matrix(1.00, 0.00, -0.00, -1.00, 1224.2, 300.0)">)</text><text xml:space="preserve" font-family="Helvetica-Light" font-size="41.3" fill="#000000" transform="matrix(1.00, 0.00, -0.00, -1.00, 1238.0, 300.0)"> </text><text xml:space="preserve" font-family="Helvetica-Light" font-size="41.3" fill="#000000" transform="matrix(1.00, 0.00, -0.00, -1.00, 114.1, 209.1)">6</text><text xml:space="preserve" font-family="Helvetica-Light" font-size="41.3" fill="#000000" transform="matrix(1.00, 0.00, -0.00, -1.00, 137.0, 209.1)">.</text><text xml:space="preserve" font-family="Helvetica-Bold" font-weight="bold" font-size="41.3" fill="#000000" transform="matrix(1.00, 0.00, -0.00, -1.00, 190.0, 209.0)">a</text><text xml:space="preserve" font-family="Helvetica-Bold" font-weight="bold" font-size="41.3" fill="#000000" transform="matrix(1.00, 0.00, -0.00, -1.00, 213.0, 209.0)">l</text><text xml:space="preserve" font-family="Helvetica-Bold" font-weight="bold" font-size="41.3" fill="#000000" transform="matrix(1.00, 0.00, -0.00, -1.00, 224.4, 209.0)">i</text><text xml:space="preserve" font-family="Helvetica-Bold" font-weight="bold" font-size="41.3" fill="#000000" transform="matrix(1.00, 0.00, -0.00, -1.00, 235.9, 209.0)">g</text><text xml:space="preserve" font-family="Helvetica-Bold" font-weight="bold" font-size="41.3" fill="#000000" transform="matrix(1.00, 0.00, -0.00, -1.00, 261.1, 209.0)">n</text><text xml:space="preserve" font-family="Helvetica-Bold" font-weight="bold" font-size="41.3" fill="#000000" transform="matrix(1.00, 0.00, -0.00, -1.00, 286.3, 209.0)">-</text><text xml:space="preserve" font-family="Helvetica-Bold" font-weight="bold" font-size="41.3" fill="#000000" transform="matrix(1.00, 0.00, -0.00, -1.00, 300.0, 209.0)">s</text><text xml:space="preserve" font-family="Helvetica-Bold" font-weight="bold" font-size="41.3" fill="#000000" transform="matrix(1.00, 0.00, -0.00, -1.00, 323.0, 209.0)">e</text><text xml:space="preserve" font-family="Helvetica-Bold" font-weight="bold" font-size="41.3" fill="#000000" transform="matrix(1.00, 0.00, -0.00, -1.00, 346.0, 209.0)">l</text><text xml:space="preserve" font-family="Helvetica-Bold" font-weight="bold" font-size="41.3" fill="#000000" transform="matrix(1.00, 0.00, -0.00, -1.00, 357.4, 209.0)">f</text><text xml:space="preserve" font-family="Helvetica-Bold" font-weight="bold" font-size="41.3" fill="#000000" transform="matrix(1.00, 0.00, -0.00, -1.00, 371.2, 209.0)"> </text><text xml:space="preserve" font-family="Helvetica-Bold" font-weight="bold" font-size="41.3" fill="#000000" transform="matrix(1.00, 0.00, -0.00, -1.00, 382.6, 209.0)">:</text><text xml:space="preserve" font-family="Helvetica-Bold" font-weight="bold" font-size="41.3" fill="#000000" transform="matrix(1.00, 0.00, -0.00, -1.00, 396.4, 209.0)"> </text><text xml:space="preserve" font-family="Helvetica-Light" font-size="41.3" fill="#000000" transform="matrix(1.00, 0.00, -0.00, -1.00, 407.9, 209.0)">a</text><text xml:space="preserve" font-family="Helvetica-Light" font-size="41.3" fill="#000000" transform="matrix(1.00, 0.00, -0.00, -1.00, 430.8, 209.0)">u</text><text xml:space="preserve" font-family="Helvetica-Light" font-size="41.3" fill="#000000" transform="matrix(1.00, 0.00, -0.00, -1.00, 453.8, 209.0)">t</text><text xml:space="preserve" font-family="Helvetica-Light" font-size="41.3" fill="#000000" transform="matrix(1.00, 0.00, -0.00, -1.00, 465.3, 209.0)">o</text><text xml:space="preserve" font-family="Helvetica-Light" font-size="41.3" fill="#000000" transform="matrix(1.00, 0.00, -0.00, -1.00, 488.2, 209.0)"> </text><text xml:space="preserve" font-family="Helvetica-Light" font-size="41.3" fill="#000000" transform="matrix(1.00, 0.00, -0.00, -1.00, 499.7, 209.0)">|</text><text xml:space="preserve" font-family="Helvetica-Light" font-size="41.3" fill="#000000" transform="matrix(1.00, 0.00, -0.00, -1.00, 508.9, 209.0)"> </text><text xml:space="preserve" font-family="Helvetica-Light" font-size="41.3" fill="#000000" transform="matrix(1.00, 0.00, -0.00, -1.00, 520.3, 209.0)">ﬂ</text><text xml:space="preserve" font-family="Helvetica-Light" font-size="41.3" fill="#000000" transform="matrix(1.00, 0.00, -0.00, -1.00, 541.0, 209.0)">e</text><text xml:space="preserve" font-family="Helvetica-Light" font-size="41.3" fill="#000000" transform="matrix(1.00, 0.00, -0.00, -1.00, 563.9, 209.0)">x</text><text xml:space="preserve" font-family="Helvetica-Light" font-size="41.3" fill="#000000" transform="matrix(1.00, 0.00, -0.00, -1.00, 584.6, 209.0)">-</text><text xml:space="preserve" font-family="Helvetica-Light" font-size="41.3" fill="#000000" transform="matrix(1.00, 0.00, -0.00, -1.00, 598.3, 209.0)">s</text><text xml:space="preserve" font-family="Helvetica-Light" font-size="41.3" fill="#000000" transform="matrix(1.00, 0.00, -0.00, -1.00, 619.0, 209.0)">t</text><text xml:space="preserve" font-family="Helvetica-Light" font-size="41.3" fill="#000000" transform="matrix(1.00, 0.00, -0.00, -1.00, 630.4, 209.0)">a</text><text xml:space="preserve" font-family="Helvetica-Light" font-size="41.3" fill="#000000" transform="matrix(1.00, 0.00, -0.00, -1.00, 653.4, 209.0)">r</text><text xml:space="preserve" font-family="Helvetica-Light" font-size="41.3" fill="#000000" transform="matrix(1.00, 0.00, -0.00, -1.00, 667.9, 209.0)">t</text><text xml:space="preserve" font-family="Helvetica-Light" font-size="41.3" fill="#000000" transform="matrix(1.00, 0.00, -0.00, -1.00, 679.3, 209.0)"> </text><text xml:space="preserve" font-family="Helvetica-Light" font-size="41.3" fill="#000000" transform="matrix(1.00, 0.00, -0.00, -1.00, 690.8, 209.0)">|</text><text xml:space="preserve" font-family="Helvetica-Light" font-size="41.3" fill="#000000" transform="matrix(1.00, 0.00, -0.00, -1.00, 700.0, 209.0)"> </text><text xml:space="preserve" font-family="Helvetica-Light" font-size="41.3" fill="#000000" transform="matrix(1.00, 0.00, -0.00, -1.00, 711.5, 209.0)">ﬂ</text><text xml:space="preserve" font-family="Helvetica-Light" font-size="41.3" fill="#000000" transform="matrix(1.00, 0.00, -0.00, -1.00, 732.1, 209.0)">e</text><text xml:space="preserve" font-family="Helvetica-Light" font-size="41.3" fill="#000000" transform="matrix(1.00, 0.00, -0.00, -1.00, 755.1, 209.0)">x</text><text xml:space="preserve" font-family="Helvetica-Light" font-size="41.3" fill="#000000" transform="matrix(1.00, 0.00, -0.00, -1.00, 775.7, 209.0)">-</text><text xml:space="preserve" font-family="Helvetica-Light" font-size="41.3" fill="#000000" transform="matrix(1.00, 0.00, -0.00, -1.00, 789.4, 209.0)">e</text><text xml:space="preserve" font-family="Helvetica-Light" font-size="41.3" fill="#000000" transform="matrix(1.00, 0.00, -0.00, -1.00, 812.4, 209.0)">n</text><text xml:space="preserve" font-family="Helvetica-Light" font-size="41.3" fill="#000000" transform="matrix(1.00, 0.00, -0.00, -1.00, 835.3, 209.0)">d</text><text xml:space="preserve" font-family="Helvetica-Light" font-size="41.3" fill="#000000" transform="matrix(1.00, 0.00, -0.00, -1.00, 860.6, 209.0)"> </text><text xml:space="preserve" font-family="Helvetica-Light" font-size="41.3" fill="#000000" transform="matrix(1.00, 0.00, -0.00, -1.00, 872.0, 209.0)">|</text><text xml:space="preserve" font-family="Helvetica-Light" font-size="41.3" fill="#000000" transform="matrix(1.00, 0.00, -0.00, -1.00, 881.2, 209.0)"> </text><text xml:space="preserve" font-family="Helvetica-Light" font-size="41.3" fill="#000000" transform="matrix(1.00, 0.00, -0.00, -1.00, 892.7, 209.0)">c</text><text xml:space="preserve" font-family="Helvetica-Light" font-size="41.3" fill="#000000" transform="matrix(1.00, 0.00, -0.00, -1.00, 915.6, 209.0)">e</text><text xml:space="preserve" font-family="Helvetica-Light" font-size="41.3" fill="#000000" transform="matrix(1.00, 0.00, -0.00, -1.00, 938.6, 209.0)">n</text><text xml:space="preserve" font-family="Helvetica-Light" font-size="41.3" fill="#000000" transform="matrix(1.00, 0.00, -0.00, -1.00, 961.5, 209.0)">t</text><text xml:space="preserve" font-family="Helvetica-Light" font-size="41.3" fill="#000000" transform="matrix(1.00, 0.00, -0.00, -1.00, 973.0, 209.0)">e</text><text xml:space="preserve" font-family="Helvetica-Light" font-size="41.3" fill="#000000" transform="matrix(1.00, 0.00, -0.00, -1.00, 996.0, 209.0)">r</text><text xml:space="preserve" font-family="Helvetica-Light" font-size="41.3" fill="#000000" transform="matrix(1.00, 0.00, -0.00, -1.00, 1009.7, 209.0)"> </text><text xml:space="preserve" font-family="Helvetica-Light" font-size="41.3" fill="#000000" transform="matrix(1.00, 0.00, -0.00, -1.00, 1021.2, 209.0)">|</text><text xml:space="preserve" font-family="Helvetica-Light" font-size="41.3" fill="#000000" transform="matrix(1.00, 0.00, -0.00, -1.00, 1030.4, 209.0)"> </text><text xml:space="preserve" font-family="Helvetica-Light" font-size="41.3" fill="#000000" transform="matrix(1.00, 0.00, -0.00, -1.00, 1041.8, 209.0)">b</text><text xml:space="preserve" font-family="Helvetica-Light" font-size="41.3" fill="#000000" transform="matrix(1.00, 0.00, -0.00, -1.00, 1067.0, 209.0)">a</text><text xml:space="preserve" font-family="Helvetica-Light" font-size="41.3" fill="#000000" transform="matrix(1.00, 0.00, -0.00, -1.00, 1090.0, 209.0)">s</text><text xml:space="preserve" font-family="Helvetica-Light" font-size="41.3" fill="#000000" transform="matrix(1.00, 0.00, -0.00, -1.00, 1110.6, 209.0)">e</text><text xml:space="preserve" font-family="Helvetica-Light" font-size="41.3" fill="#000000" transform="matrix(1.00, 0.00, -0.00, -1.00, 1133.6, 209.0)">l</text><text xml:space="preserve" font-family="Helvetica-Light" font-size="41.3" fill="#000000" transform="matrix(1.00, 0.00, -0.00, -1.00, 1142.8, 209.0)">i</text><text xml:space="preserve" font-family="Helvetica-Light" font-size="41.3" fill="#000000" transform="matrix(1.00, 0.00, -0.00, -1.00, 1151.9, 209.0)">n</text><text xml:space="preserve" font-family="Helvetica-Light" font-size="41.3" fill="#000000" transform="matrix(1.00, 0.00, -0.00, -1.00, 1174.9, 209.0)">e</text><text xml:space="preserve" font-family="Helvetica-Light" font-size="41.3" fill="#000000" transform="matrix(1.00, 0.00, -0.00, -1.00, 1197.8, 209.0)"> </text><text xml:space="preserve" font-family="Helvetica-Light" font-size="41.3" fill="#000000" transform="matrix(1.00, 0.00, -0.00, -1.00, 1209.3, 209.0)">|</text><text xml:space="preserve" font-family="Helvetica-Light" font-size="41.3" fill="#000000" transform="matrix(1.00, 0.00, -0.00, -1.00, 1218.5, 209.0)"> </text><text xml:space="preserve" font-family="Helvetica-Light" font-size="41.3" fill="#000000" transform="matrix(1.00, 0.00, -0.00, -1.00, 1229.9, 209.0)">s</text><text xml:space="preserve" font-family="Helvetica-Light" font-size="41.3" fill="#000000" transform="matrix(1.00, 0.00, -0.00, -1.00, 1250.6, 209.0)">t</text><text xml:space="preserve" font-family="Helvetica-Light" font-size="41.3" fill="#000000" transform="matrix(1.00, 0.00, -0.00, -1.00, 1262.1, 209.0)">r</text><text xml:space="preserve" font-family="Helvetica-Light" font-size="41.3" fill="#000000" transform="matrix(1.00, 0.00, -0.00, -1.00, 1275.1, 209.0)">e</text><text xml:space="preserve" font-family="Helvetica-Light" font-size="41.3" fill="#000000" transform="matrix(1.00, 0.00, -0.00, -1.00, 1298.0, 209.0)">t</text><text xml:space="preserve" font-family="Helvetica-Light" font-size="41.3" fill="#000000" transform="matrix(1.00, 0.00, -0.00, -1.00, 1309.5, 209.0)">c</text><text xml:space="preserve" font-family="Helvetica-Light" font-size="41.3" fill="#000000" transform="matrix(1.00, 0.00, -0.00, -1.00, 1332.4, 209.0)">h</text><text xml:space="preserve" font-family="Helvetica-Light" font-size="72.0" fill="#000000" transform="matrix(1.00, 0.00, -0.00, -1.00, 756.0, 918.0)">F</text><text xml:space="preserve" font-family="Helvetica-Light" font-size="72.0" fill="#000000" transform="matrix(1.00, 0.00, -0.00, -1.00, 796.0, 918.0)">l</text><text xml:space="preserve" font-family="Helvetica-Light" font-size="72.0" fill="#000000" transform="matrix(1.00, 0.00, -0.00, -1.00, 812.0, 918.0)">e</text><text xml:space="preserve" font-family="Helvetica-Light" font-size="72.0" fill="#000000" transform="matrix(1.00, 0.00, -0.00, -1.00, 852.0, 918.0)">x</text><text xml:space="preserve" font-family="Helvetica-Light" font-size="72.0" fill="#000000" transform="matrix(1.00, 0.00, -0.00, -1.00, 888.0, 918.0)"> </text><text xml:space="preserve" font-family="Helvetica-Light" font-size="72.0" fill="#000000" transform="matrix(1.00, 0.00, -0.00, -1.00, 908.1, 918.0)">Ö</text><text xml:space="preserve" font-family="Helvetica-Light" font-size="72.0" fill="#000000" transform="matrix(1.00, 0.00, -0.00, -1.00, 964.1, 918.0)">z</text><text xml:space="preserve" font-family="Helvetica-Light" font-size="72.0" fill="#000000" transform="matrix(1.00, 0.00, -0.00, -1.00, 1000.1, 918.0)">e</text><text xml:space="preserve" font-family="Helvetica-Light" font-size="72.0" fill="#000000" transform="matrix(1.00, 0.00, -0.00, -1.00, 1040.1, 918.0)">l</text><text xml:space="preserve" font-family="Helvetica-Light" font-size="72.0" fill="#000000" transform="matrix(1.00, 0.00, -0.00, -1.00, 1056.1, 918.0)">l</text><text xml:space="preserve" font-family="Helvetica-Light" font-size="72.0" fill="#000000" transform="matrix(1.00, 0.00, -0.00, -1.00, 1072.1, 918.0)">i</text><text xml:space="preserve" font-family="Helvetica-Light" font-size="72.0" fill="#000000" transform="matrix(1.00, 0.00, -0.00, -1.00, 1088.1, 918.0)">k</text><text xml:space="preserve" font-family="Helvetica-Light" font-size="72.0" fill="#000000" transform="matrix(1.00, 0.00, -0.00, -1.00, 1124.1, 918.0)">l</text><text xml:space="preserve" font-family="Helvetica-Light" font-size="72.0" fill="#000000" transform="matrix(1.00, 0.00, -0.00, -1.00, 1140.0, 918.0)">e</text><text xml:space="preserve" font-family="Helvetica-Light" font-size="72.0" fill="#000000" transform="matrix(1.00, 0.00, -0.00, -1.00, 1180.1, 918.0)">r</text><text xml:space="preserve" font-family="Helvetica-Light" font-size="72.0" fill="#000000" transform="matrix(1.00, 0.00, -0.00, -1.00, 1204.1, 918.0)">i</text></g></svg>