<?xml version="1.0" encoding="UTF-8" standalone="no"?><svg xmlns="http://www.w3.org/2000/svg" xmlns:xlink="http://www.w3.org/1999/xlink" clip-rule="evenodd" stroke-miterlimit="4.00" viewBox="0 0 1920 1080"><desc>SVG generated by Keynote</desc><defs></defs><g transform="matrix(1.00, 0.00, -0.00, -1.00, 0.0, 1080.0)"><path d="M 0.0 1080.0 L 1920.0 1080.0 L 1920.0 0.0 L 0.0 0.0 Z M 0.0 1080.0 " fill="#FEFFFF"></path><g><clipPath id="clip-18"><path d="M 511.0 929.0 L 1407.0 929.0 L 1407.0 386.0 L 511.0 386.0 Z M 511.4 928.7 "></path></clipPath><g clip-path="url(#clip-18)"><image xlink:href="../../9A68AF55-A177-4025-837F-E45763521333/assets/E8584C76B69C716D88E9818E8739938B.png" width="563.00" height="333.00" transform="matrix(1.63, 0.00, -0.00, -1.63, 501.0, 929.0)"></image></g></g><g><clipPath id="clip-19"><path d="M 467.2 205.9 L 1452.8 205.9 L 1452.8 326.6 L 467.2 326.6 Z M 467.2 205.9 "></path></clipPath><g clip-path="url(#clip-19)"><text xml:space="preserve" font-family="Helvetica-Light" font-size="72.0" fill="#000000" transform="matrix(1.00, 0.00, -0.00, -1.00, 768.0, 222.0)">d</text><text xml:space="preserve" font-family="Helvetica-Light" font-size="72.0" fill="#000000" transform="matrix(1.00, 0.00, -0.00, -1.00, 812.0, 222.0)">i</text><text xml:space="preserve" font-family="Helvetica-Light" font-size="72.0" fill="#000000" transform="matrix(1.00, 0.00, -0.00, -1.00, 828.0, 222.0)">s</text><text xml:space="preserve" font-family="Helvetica-Light" font-size="72.0" fill="#000000" transform="matrix(1.00, 0.00, -0.00, -1.00, 864.0, 222.0)">p</text><text xml:space="preserve" font-family="Helvetica-Light" font-size="72.0" fill="#000000" transform="matrix(1.00, 0.00, -0.00, -1.00, 908.0, 222.0)">l</text><text xml:space="preserve" font-family="Helvetica-Light" font-size="72.0" fill="#000000" transform="matrix(1.00, 0.00, -0.00, -1.00, 924.0, 222.0)">a</text><text xml:space="preserve" font-family="Helvetica-Light" font-size="72.0" fill="#000000" transform="matrix(1.00, 0.00, -0.00, -1.00, 964.0, 222.0)">y</text><text xml:space="preserve" font-family="Helvetica-Light" font-size="72.0" fill="#000000" transform="matrix(1.00, 0.00, -0.00, -1.00, 1000.0, 222.0)">:</text><text xml:space="preserve" font-family="Helvetica-Light" font-size="72.0" fill="#000000" transform="matrix(1.00, 0.00, -0.00, -1.00, 1020.0, 222.0)">ﬂ</text><text xml:space="preserve" font-family="Helvetica-Light" font-size="72.0" fill="#000000" transform="matrix(1.00, 0.00, -0.00, -1.00, 1056.0, 222.0)">e</text><text xml:space="preserve" font-family="Helvetica-Light" font-size="72.0" fill="#000000" transform="matrix(1.00, 0.00, -0.00, -1.00, 1096.0, 222.0)">x</text><text xml:space="preserve" font-family="Helvetica-Light" font-size="72.0" fill="#000000" transform="matrix(1.00, 0.00, -0.00, -1.00, 1132.0, 222.0)">;</text></g></g><text xml:space="preserve" font-family="Helvetica-Bold" font-weight="bold" font-size="44.0" fill="#51A7F9" transform="matrix(1.00, 0.00, -0.00, -1.00, 855.0, 149.0)">.</text><text xml:space="preserve" font-family="Helvetica-Bold" font-weight="bold" font-size="44.0" fill="#51A7F9" transform="matrix(1.00, 0.00, -0.00, -1.00, 867.2, 149.0)">c</text><text xml:space="preserve" font-family="Helvetica-Bold" font-weight="bold" font-size="44.0" fill="#51A7F9" transform="matrix(1.00, 0.00, -0.00, -1.00, 891.7, 149.0)">o</text><text xml:space="preserve" font-family="Helvetica-Bold" font-weight="bold" font-size="44.0" fill="#51A7F9" transform="matrix(1.00, 0.00, -0.00, -1.00, 918.6, 149.0)">n</text><text xml:space="preserve" font-family="Helvetica-Bold" font-weight="bold" font-size="44.0" fill="#51A7F9" transform="matrix(1.00, 0.00, -0.00, -1.00, 945.4, 149.0)">t</text><text xml:space="preserve" font-family="Helvetica-Bold" font-weight="bold" font-size="44.0" fill="#51A7F9" transform="matrix(1.00, 0.00, -0.00, -1.00, 960.1, 149.0)">a</text><text xml:space="preserve" font-family="Helvetica-Bold" font-weight="bold" font-size="44.0" fill="#51A7F9" transform="matrix(1.00, 0.00, -0.00, -1.00, 984.6, 149.0)">i</text><text xml:space="preserve" font-family="Helvetica-Bold" font-weight="bold" font-size="44.0" fill="#51A7F9" transform="matrix(1.00, 0.00, -0.00, -1.00, 996.8, 149.0)">n</text><text xml:space="preserve" font-family="Helvetica-Bold" font-weight="bold" font-size="44.0" fill="#51A7F9" transform="matrix(1.00, 0.00, -0.00, -1.00, 1023.6, 149.0)">e</text><text xml:space="preserve" font-family="Helvetica-Bold" font-weight="bold" font-size="44.0" fill="#51A7F9" transform="matrix(1.00, 0.00, -0.00, -1.00, 1048.1, 149.0)">r</text></g></svg>